<svg width="88" height="88" viewBox="0 0 88 88" fill="none" xmlns="http://www.w3.org/2000/svg">
<path d="M43.1613 21.5905C43.1613 35.9358 48.8793 49.6958 59.0623 59.8424L74.5693 75.2941L82.7897 67.1031L62.1827 46.5696C61.2319 45.6223 61.9042 44.0017 63.2522 44.0017H89V32.4138H57.7312C56.1048 32.4138 54.7874 31.101 54.7874 29.4804V-1H43.1579V21.5905H43.1613ZM-0.996597 43.9983H24.7512C26.0958 43.9983 26.7714 42.3777 25.8207 41.4304L5.21369 20.8969L13.4341 12.7059L28.9411 28.1575C39.1207 38.3008 44.8421 52.0608 44.8421 66.4095V89H33.2126V58.5196C33.2126 56.8989 31.8952 55.5862 30.2688 55.5862H-1V43.9983H-0.996597Z" fill="#F5F5F5"/>
</svg>
