<svg width="75" height="75" viewBox="0 0 75 75" fill="none" xmlns="http://www.w3.org/2000/svg">
  <rect x="22.9644" y="62.979" width="41.4893" height="41.4893" rx="20.7447"
    transform="rotate(-105.324 22.9644 62.979)" fill="#003D8C" />
  <path
    d="M45.4893 27.4895H29.4893C28.4893 27.4895 27.4893 28.3895 27.4893 29.4895V32.4995C27.4893 33.2195 27.9193 33.8395 28.4893 34.1895V45.4895C28.4893 46.5895 29.5893 47.4895 30.4893 47.4895H44.4893C45.3893 47.4895 46.4893 46.5895 46.4893 45.4895V34.1895C47.0593 33.8395 47.4893 33.2195 47.4893 32.4995V29.4895C47.4893 28.3895 46.4893 27.4895 45.4893 27.4895ZM40.4893 39.4895H34.4893V37.4895H40.4893V39.4895ZM45.4893 32.4895H29.4893V29.4895H45.4893V32.4895Z"
    fill="#E8E8E8" />
  <rect x="17.363" y="72.8088" width="57.4893" height="57.4893" rx="28.7447"
    transform="rotate(-105.324 17.363 72.8088)" stroke="#003D8C" stroke-opacity="0.4"
    stroke-width="16" />
</svg>
  