<svg width="75" height="75" viewBox="0 0 75 75" fill="none" xmlns="http://www.w3.org/2000/svg">
  <rect x="22.9644" y="62.979" width="41.4893" height="41.4893" rx="20.7447"
    transform="rotate(-105.324 22.9644 62.979)" fill="#003D8C" />
  <path
    d="M44.4093 31.4995C44.2093 30.9095 43.6493 30.4895 42.9893 30.4895H31.9893C31.3293 30.4895 30.7793 30.9095 30.5693 31.4995L28.4893 37.4895V45.4895C28.4893 46.0395 28.9393 46.4895 29.4893 46.4895H30.4893C31.0393 46.4895 31.4893 46.0395 31.4893 45.4895V44.4895H43.4893V45.4895C43.4893 46.0395 43.9393 46.4895 44.4893 46.4895H45.4893C46.0393 46.4895 46.4893 46.0395 46.4893 45.4895V37.4895L44.4093 31.4995ZM31.9893 41.4895C31.1593 41.4895 30.4893 40.8195 30.4893 39.9895C30.4893 39.1595 31.1593 38.4895 31.9893 38.4895C32.8193 38.4895 33.4893 39.1595 33.4893 39.9895C33.4893 40.8195 32.8193 41.4895 31.9893 41.4895ZM42.9893 41.4895C42.1593 41.4895 41.4893 40.8195 41.4893 39.9895C41.4893 39.1595 42.1593 38.4895 42.9893 38.4895C43.8193 38.4895 44.4893 39.1595 44.4893 39.9895C44.4893 40.8195 43.8193 41.4895 42.9893 41.4895ZM30.4893 36.4895L31.9893 31.9895H42.9893L44.4893 36.4895H30.4893Z"
    fill="#E8E8E8" />
  <rect x="17.363" y="72.8088" width="57.4893" height="57.4893" rx="28.7447"
    transform="rotate(-105.324 17.363 72.8088)" stroke="#003D8C" stroke-opacity="0.4"
    stroke-width="16" />
</svg>
  