<svg width="25" height="21" viewBox="0 0 25 21" fill="none" xmlns="http://www.w3.org/2000/svg">
  <path
    d="M2.73771 7.0044C1.5217 6.33728 1.08801 4.80333 1.7747 3.59826C2.44258 2.42622 3.92407 2.00185 5.1112 2.64254L8.65184 4.55343C8.92936 4.70321 9.06812 4.7781 9.21467 4.80753C9.3444 4.83357 9.47801 4.83362 9.60776 4.80765C9.75432 4.77832 9.89313 4.70353 10.1707 4.55393L16.9355 0.908691C17.2204 0.755135 17.3629 0.678357 17.5131 0.649371C17.6461 0.623717 17.7829 0.625337 17.9152 0.654135C18.0647 0.686672 18.2054 0.766804 18.4866 0.927068L18.9422 1.18667C19.687 1.61108 20.0594 1.82328 20.1942 2.10795C20.312 2.35652 20.3222 2.64263 20.2224 2.89895C20.1082 3.1925 19.7518 3.43067 19.0391 3.90703L13.7554 7.43872L17.8658 9.78102C18.1112 9.92084 18.2339 9.99075 18.3649 10.0241C18.481 10.0536 18.6015 10.0621 18.7205 10.049C18.855 10.0342 18.9862 9.98212 19.2486 9.87787L20.7947 9.26374C21.0571 9.15949 21.1884 9.10736 21.3228 9.09261C21.4419 9.07955 21.5623 9.08798 21.6784 9.11752C21.8095 9.15086 21.9322 9.22077 22.1775 9.36058L22.4202 9.49887C23.0015 9.83009 23.2921 9.9957 23.4276 10.2311C23.5465 10.4376 23.5877 10.6797 23.5439 10.9139C23.494 11.1809 23.2746 11.4334 22.8358 11.9384L20.9814 14.0727C20.9031 14.1629 20.8639 14.208 20.8305 14.2571C20.8009 14.3006 20.7748 14.3464 20.7524 14.3941C20.7272 14.4478 20.7084 14.5045 20.6707 14.6179L19.7799 17.3012C19.5691 17.9362 19.4637 18.2536 19.2594 18.4327C19.0803 18.5898 18.8509 18.6777 18.6127 18.6807C18.3411 18.6841 18.0505 18.5185 17.4692 18.1872L17.2265 18.049C16.9812 17.9091 16.8585 17.8392 16.763 17.7435C16.6784 17.6587 16.6098 17.5593 16.5603 17.4502C16.5045 17.3271 16.4824 17.1876 16.4383 16.9087L16.1786 15.2655C16.1345 14.9866 16.1124 14.8471 16.0566 14.7239C16.0071 14.6148 15.9385 14.5155 15.8539 14.4307C15.7584 14.3349 15.6357 14.265 15.3903 14.1252L11.2799 11.7829L10.9349 18.129C10.8884 18.9849 10.8652 19.4129 10.6709 19.6608C10.5012 19.8774 10.2499 20.0144 9.97599 20.0398C9.66233 20.0689 9.28993 19.8567 8.54515 19.4323L8.08958 19.1727C7.80833 19.0124 7.66771 18.9323 7.5635 18.8202C7.47127 18.7211 7.40015 18.6042 7.35444 18.4767C7.30279 18.3327 7.29621 18.171 7.28305 17.8476L6.97193 10.1987C6.959 9.88086 6.95254 9.72195 6.90273 9.58045C6.85465 9.44384 6.77746 9.3193 6.67651 9.21545C6.57196 9.10789 6.43251 9.03139 6.15363 8.87839L2.73771 7.0044Z"
    stroke="#E8E8E8" stroke-width="1.125" stroke-linecap="round" stroke-linejoin="round" />
</svg>
  