<svg width="69" height="69" viewBox="0 0 69 69" fill="none" xmlns="http://www.w3.org/2000/svg">
<rect x="21.5137" y="56.2339" width="36" height="36" rx="18" transform="rotate(-105.324 21.5137 56.2339)" fill="#003D8C"/>
<path d="M23.7377 31.0044C22.5217 30.3373 22.088 28.8033 22.7747 27.5983C23.4426 26.4262 24.9241 26.0018 26.1112 26.6425L29.6518 28.5534C29.9294 28.7032 30.0681 28.7781 30.2147 28.8075C30.3444 28.8336 30.478 28.8336 30.6078 28.8077C30.7543 28.7783 30.8931 28.7035 31.1707 28.5539L37.9355 24.9087C38.2204 24.7551 38.3629 24.6784 38.5131 24.6494C38.6461 24.6237 38.7829 24.6253 38.9152 24.6541C39.0647 24.6867 39.2054 24.7668 39.4866 24.9271L39.9422 25.1867C40.687 25.6111 41.0594 25.8233 41.1942 26.1079C41.312 26.3565 41.3222 26.6426 41.2224 26.899C41.1082 27.1925 40.7518 27.4307 40.0391 27.907L34.7554 31.4387L38.8658 33.781C39.1112 33.9208 39.2339 33.9907 39.3649 34.0241C39.481 34.0536 39.6015 34.0621 39.7205 34.049C39.855 34.0342 39.9862 33.9821 40.2486 33.8779L41.7947 33.2637C42.0571 33.1595 42.1884 33.1074 42.3228 33.0926C42.4419 33.0795 42.5623 33.088 42.6784 33.1175C42.8095 33.1509 42.9322 33.2208 43.1775 33.3606L43.4202 33.4989C44.0015 33.8301 44.2921 33.9957 44.4276 34.2311C44.5465 34.4376 44.5877 34.6797 44.5439 34.9139C44.494 35.1809 44.2746 35.4334 43.8358 35.9384L41.9814 38.0727C41.9031 38.1629 41.8639 38.208 41.8305 38.2571C41.8009 38.3006 41.7748 38.3464 41.7524 38.3941C41.7272 38.4478 41.7084 38.5045 41.6707 38.6179L40.7799 41.3012C40.5691 41.9362 40.4637 42.2536 40.2594 42.4327C40.0803 42.5898 39.8509 42.6777 39.6127 42.6807C39.3411 42.6841 39.0505 42.5185 38.4692 42.1872L38.2265 42.049C37.9812 41.9091 37.8585 41.8392 37.763 41.7435C37.6784 41.6587 37.6098 41.5593 37.5603 41.4502C37.5045 41.3271 37.4824 41.1876 37.4383 40.9087L37.1786 39.2655C37.1345 38.9866 37.1124 38.8471 37.0566 38.7239C37.0071 38.6148 36.9385 38.5155 36.8539 38.4307C36.7584 38.3349 36.6357 38.265 36.3903 38.1252L32.2799 35.7829L31.9349 42.129C31.8884 42.9849 31.8652 43.4129 31.6709 43.6608C31.5012 43.8774 31.2499 44.0144 30.976 44.0398C30.6623 44.0689 30.2899 43.8567 29.5452 43.4323L29.0896 43.1727C28.8083 43.0124 28.6677 42.9323 28.5635 42.8202C28.4713 42.7211 28.4001 42.6042 28.3544 42.4767C28.3028 42.3327 28.2962 42.171 28.2831 41.8476L27.9719 34.1987C27.959 33.8809 27.9525 33.7219 27.9027 33.5805C27.8546 33.4438 27.7775 33.3193 27.6765 33.2154C27.572 33.1079 27.4325 33.0314 27.1536 32.8784L23.7377 31.0044Z" stroke="#E8E8E8" stroke-width="1.125" stroke-linecap="round" stroke-linejoin="round"/>
<rect x="15.9123" y="66.0637" width="52" height="52" rx="26" transform="rotate(-105.324 15.9123 66.0637)" stroke="#003D8C" stroke-opacity="0.4" stroke-width="16"/>
</svg>
