<svg width="75" height="75" viewBox="0 0 75 75" fill="none" xmlns="http://www.w3.org/2000/svg">
  <rect x="22.9644" y="62.979" width="41.4893" height="41.4893" rx="20.7447"
    transform="rotate(-105.324 22.9644 62.979)" fill="#003D8C" />
  <g clip-path="url(#clip0_392_5506)">
    <path
      d="M40.9291 26.0796L37.7491 29.2596C36.9691 30.0396 36.9691 31.3096 37.7491 32.0896L38.9891 33.3296L38.2791 34.0396L37.0391 32.7896C36.2591 32.0096 34.9891 32.0096 34.2091 32.7896L32.7891 34.2096C32.0091 34.9896 32.0091 36.2596 32.7891 37.0396L34.0291 38.2796L33.3191 38.9896L32.0891 37.7396C31.3091 36.9596 30.0391 36.9596 29.2591 37.7396L26.0791 40.9196C25.2991 41.6996 25.2991 42.9696 26.0791 43.7496L29.6191 47.2896C30.3991 48.0696 31.6691 48.0696 32.4491 47.2896L35.6291 44.1096C36.4091 43.3296 36.4091 42.0596 35.6291 41.2796L34.3891 40.0396L35.0991 39.3296L36.3391 40.5696C37.1191 41.3496 38.3891 41.3496 39.1691 40.5696L40.5791 39.1596C41.3591 38.3796 41.3591 37.1096 40.5791 36.3296L39.3291 35.0896L40.0391 34.3796L41.2791 35.6196C42.0591 36.3996 43.3291 36.3996 44.1091 35.6196L47.2891 32.4396C48.0691 31.6596 48.0691 30.3896 47.2891 29.6096L43.7491 26.0696C42.9691 25.2896 41.7091 25.2896 40.9291 26.0796ZM32.0891 44.8096L31.0291 45.8696L27.4891 42.3396L28.5491 41.2796L32.0891 44.8096ZM34.2091 42.6896L33.1491 43.7496L29.6091 40.2096L30.6691 39.1496L34.2091 42.6896ZM43.7491 33.1496L42.6891 34.2096L39.1491 30.6696L40.2091 29.6096L43.7491 33.1496ZM45.8691 31.0296L44.8091 32.0896L41.2691 28.5496L42.3391 27.4896L45.8691 31.0296ZM39.4891 46.4896V48.4896C44.4591 48.4896 48.4891 44.4596 48.4891 39.4896H46.4891C46.4891 43.3596 43.3591 46.4896 39.4891 46.4896ZM39.4891 42.4896V44.4896C42.2491 44.4896 44.4891 42.2496 44.4891 39.4896H42.4891C42.4891 41.1496 41.1491 42.4896 39.4891 42.4896Z"
      fill="#E8E8E8" />
  </g>
  <rect x="17.363" y="72.8088" width="57.4893" height="57.4893" rx="28.7447"
    transform="rotate(-105.324 17.363 72.8088)" stroke="#003D8C" stroke-opacity="0.4"
    stroke-width="16" />
  <defs>
    <clipPath id="clip0_392_5506">
      <rect width="24" height="24" fill="white" transform="translate(25.4893 25.4895)" />
    </clipPath>
  </defs>
</svg>
  