<svg width="38" height="38" viewBox="0 0 38 38" fill="none" xmlns="http://www.w3.org/2000/svg">
<rect width="38" height="38" rx="19" fill="#9098A3"/>
<path d="M19 26.5C23.1421 26.5 26.5 23.1421 26.5 19C26.5 14.8579 23.1421 11.5 19 11.5C14.8579 11.5 11.5 14.8579 11.5 19C11.5 23.1421 14.8579 26.5 19 26.5Z" stroke="black" stroke-width="0.75" stroke-linecap="round" stroke-linejoin="round"/>
<path d="M21.0416 16.1995C21.408 16.0773 21.5912 16.0163 21.713 16.0597C21.819 16.0975 21.9025 16.181 21.9403 16.287C21.9837 16.4088 21.9227 16.592 21.8005 16.9584L20.6849 20.3054C20.6501 20.4097 20.6327 20.4619 20.6031 20.5053C20.5768 20.5436 20.5436 20.5768 20.5053 20.6031C20.4619 20.6327 20.4097 20.6501 20.3054 20.6849L16.9584 21.8005C16.592 21.9227 16.4088 21.9837 16.287 21.9403C16.181 21.9025 16.0975 21.819 16.0597 21.713C16.0163 21.5912 16.0773 21.408 16.1995 21.0416L17.3151 17.6946C17.3499 17.5903 17.3673 17.5381 17.3969 17.4947C17.4232 17.4564 17.4564 17.4232 17.4947 17.3969C17.5381 17.3673 17.5903 17.3499 17.6946 17.3151L21.0416 16.1995Z" stroke="black" stroke-width="0.75" stroke-linecap="round" stroke-linejoin="round"/>
</svg>
